<?xml version="1.0" encoding="utf-8"?>
<!-- Generator: Adobe Illustrator 26.2.1, SVG Export Plug-In . SVG Version: 6.00 Build 0)  -->
<svg version="1.1" id="Layer_1" xmlns="http://www.w3.org/2000/svg" xmlns:xlink="http://www.w3.org/1999/xlink" x="0px" y="0px"
	 width="600px" height="600px" viewBox="0 0 600 600" style="enable-background:new 0 0 600 600;" xml:space="preserve">
<style type="text/css">
	.st0{fill-rule:evenodd;clip-rule:evenodd;fill:#EC1C24;}
	.st1{fill-rule:evenodd;clip-rule:evenodd;fill:#007A48;}
	.st2{fill:#007A48;}
	.st3{fill:#808184;}
</style>
<g>
	<g>
		<g>
			<g>
				<path class="st0" d="M45.1,349.9l-0.7-80.5h66.3c-0.3,1.6-0.5,3.3-0.8,5c0.4,2.2,0.7,3.9,0.9,5c-10.8-1-34-1.5-44.9-1.5l0.2,25
					h27.5c7.5,0,13.1-0.4,16.8-1.1c-0.1,0.9-0.4,2.6-0.8,5.3c0.4,2.3,0.7,3.9,0.9,5c-7-0.8-30-1.2-44.4-1.2l0.4,38.8
					c-4.5-0.5-8.2-0.7-10.9-0.7C53,349.2,49.5,349.4,45.1,349.9z"/>
				<path class="st0" d="M118.5,348.3l-0.7-79.8h67.8c-0.4,1.3-0.7,3.1-1.1,5.3c0.3,1.2,0.6,2.8,0.9,4.8c-9.8-1-32.7-1.5-41.5-1.5
					h-4.7l0.2,25h18.4c5.6,0,23.7-0.3,27.2-1.1c-0.1,0.9-0.2,1.8-0.3,2.5c-0.1,0.7-0.3,1.7-0.5,3c0.4,1.6,0.7,3.2,0.9,4.8
					c-4.5-0.8-23.9-1.2-30.8-1.2h-14.9l0.3,29.7c11,0,35.6-0.5,46.5-1.6c-0.5,2.2-0.9,4-1.1,5.5c0.4,1.5,0.7,3,0.9,4.6H118.5z"/>
				<path class="st0" d="M192.7,349.9l-0.7-80.5h35.7c6.7,0,11.7,0.5,15,1.5c3.3,1,6.4,2.6,9.1,5c3.9,3,5.9,7.1,5.9,12.5
					c0.1,6.4-2.1,11.3-6.6,14.6c-4.5,3.4-9.6,5.6-15.3,6.7c3.7,5,7.2,9.5,10.3,13.6c3.2,4.1,6.5,8.3,10,12.8
					c3.5,4.4,7.1,9,10.8,13.9c-4.8-0.5-9.1-0.7-12.8-0.7c-3.7,0-8,0.2-13,0.7c-4.3-6.3-9.4-13.6-15.2-21.9
					c-5.8-8.3-9.6-13.6-11.2-15.7h-1l0.3,37.7c-4.3-0.5-7.8-0.7-10.6-0.7C200.7,349.2,197.2,349.4,192.7,349.9L192.7,349.9z
					 M213.7,307.2c14.6,0.9,22-4.6,22.2-16.5c-0.1-6.2-1.6-10.2-4.6-12.1c-3-1.9-7.3-2.8-12.9-2.8h-5L213.7,307.2z"/>
				<path class="st0" d="M286.8,349.7l-0.7-72c-9.5,0-18.4,0.6-26.5,1.8c0.1-0.6,0.2-1.2,0.2-1.8c0-0.6,0.1-1,0.1-1.3
					c0-0.3,0.1-0.8,0.1-1.4c0-0.8,0-1.4-0.1-1.8c-0.1-0.4-0.1-0.9-0.2-1.6c-0.1-0.7-0.1-1.4-0.2-2.1h72.9c-0.2,1.8-0.4,3.6-0.8,5.5
					c0.4,1.9,0.7,3.4,0.9,4.6c-11.6-1.2-20.1-1.8-25.5-1.8l0.7,72c-2.6-0.2-4.7-0.3-6.2-0.3c-1.5,0-3.1-0.1-4.9-0.2
					c-1.5,0.1-2.9,0.1-4.1,0.2C291.4,349.4,289.4,349.5,286.8,349.7z"/>
				<path class="st0" d="M339.1,269.4c2.3,0.2,5.8,0.4,10.5,0.7c4.7-0.3,8.2-0.5,10.5-0.7l0.7,80.5c-3.8-0.5-7.5-0.7-11.1-0.7
					c-3,0-6.3,0.2-9.9,0.7L339.1,269.4z"/>
				<path class="st0" d="M367.1,349.7l-0.7-80.3h35.7c9.9,0,17.5,1.8,22.7,5.5c4.4,3.1,6.7,7.9,7.1,14.4c0.3,6.2-1.3,11.2-4.9,14.9
					c-3.6,3.7-8.1,6.3-13.5,7.7c-5.4,1.4-10.5,2.2-15.3,2.3c-4.8,0.1-8.2,0.2-10.1,0.3l0.3,35.2c-2.8-0.2-4.9-0.3-6.3-0.3
					c-1.4,0-3-0.1-4.7-0.2c-1.6,0.1-3,0.1-4.2,0.2C372,349.4,370,349.5,367.1,349.7L367.1,349.7z M388.1,308c6.7,0,12-1.2,15.8-3.6
					c3.8-2.4,5.8-6.7,5.8-13c0.1-3.5-0.6-6.4-2-8.8c-1.4-2.3-3.1-4.1-5.2-5.1c-2.1-1.1-4-1.6-5.7-1.6h-9.1L388.1,308z"/>
				<path class="st0" d="M414.9,349.7l31.2-81.3c0.7,0.1,1.4,0.1,2.2,0.2c0.8,0,1.5,0.1,1.9,0.2c2.5-0.2,4-0.3,4.4-0.4l31.7,81.3
					c-2.5-0.2-4.4-0.3-5.7-0.3c-1.3,0-2.8-0.1-4.4-0.2c-1.3,0.1-2.5,0.1-3.6,0.2c-1.1,0-2.9,0.1-5.4,0.3c-2.3-8-5-16-8-24.2H433
					c-1.5,4.4-2.6,7.7-3.3,9.8c-0.7,2.1-1.5,4.6-2.5,7.6c-0.9,3-1.6,5.3-2,6.8c-1.2-0.2-2.2-0.3-3-0.3c-0.8,0-1.7-0.1-2.6-0.2
					c-0.7,0.1-1.4,0.1-2,0.2C417.2,349.4,416.2,349.5,414.9,349.7L414.9,349.7z M456.5,318.1l-10.2-27.1L436,318.1H456.5z"/>
				<path class="st0" d="M488.4,349.9l-0.7-80.5h35.7c6.7,0,11.7,0.5,15,1.5c3.3,1,6.4,2.6,9.1,5c3.9,3,5.9,7.1,5.9,12.5
					c0.1,6.4-2.1,11.3-6.6,14.6c-4.5,3.4-9.6,5.6-15.3,6.7c3.7,5,7.2,9.5,10.3,13.6c3.2,4.1,6.5,8.3,10,12.8
					c3.5,4.4,7.1,9,10.8,13.9c-4.8-0.5-9.1-0.7-12.8-0.7c-3.7,0-8,0.2-13,0.7c-4.3-6.3-9.4-13.6-15.2-21.9
					c-5.8-8.3-9.6-13.6-11.2-15.7h-1l0.3,37.7c-4.3-0.5-7.8-0.7-10.6-0.7C496.4,349.2,492.9,349.4,488.4,349.9L488.4,349.9z
					 M509.4,307.2c14.6,0.9,22-4.6,22.2-16.5c-0.1-6.2-1.6-10.2-4.6-12.1c-3-1.9-7.3-2.8-12.9-2.8h-5L509.4,307.2z"/>
			</g>
			<path class="st1" d="M551.8,223.7c-8.6,18.4-25.7,31-45.3,31H89c-19.5,0-36.6-12.6-45.3-31h65.4c6.5,13.3,19.1,22.3,33.3,22.3
				h151.7v-21.4H160.5c-16,0-29.4-12.8-32.9-29.9h67.7c0.5,12.1,9.4,21.8,20.2,21.8h78.7v-20.9h-57c-11.1,0-20.2-10.3-20.2-23v-1.2
				h161.5v1.2c0,12.6-9.1,23-20.2,23h-57v20.9H380c10.8,0,19.6-9.7,20.2-21.8h67.7c-3.4,17.1-16.9,29.9-32.9,29.9H301.3V246h152.2
				c14.3,0,26.8-9,33.3-22.3H551.8z"/>
			<path class="st1" d="M551.8,394.6c-8.6-18.4-25.7-31-45.3-31H89c-19.5,0-36.6,12.6-45.3,31h65.4c6.5-13.3,19.1-22.3,33.3-22.3
				h151.7v21.4H160.5c-16,0-29.4,12.8-32.9,29.9h67.7c0.5-12.1,9.4-21.8,20.2-21.8h78.7v20.9h-57c-11.1,0-20.2,10.3-20.2,23v1.2
				h161.5v-1.2c0-12.6-9.1-23-20.2-23h-57v-20.9H380c10.8,0,19.6,9.7,20.2,21.8h67.7c-3.4-17.1-16.9-29.9-32.9-29.9H301.3v-21.4
				h152.2c14.3,0,26.8,9,33.3,22.3H551.8z"/>
			<path class="st1" d="M4.8,232.1l0-0.3c0.2-0.9,0.4-1.9,0.7-2.9l0,0c0.2-1,0.5-1.9,0.7-2.9l0-0.1c1.5-5.1,3.8-10,6.7-14.6
				c3-4.6,6.6-8.9,10.8-12.7l0.1-0.1c1.2-1,2.5-2.1,3.8-3.1c1.4-1.1,2.7-2.1,4-3l0,0c5-3.4,10.3-6.2,15.8-8.6c5.4-2.3,11.1-4.3,17-6
				l0,0c2.9-0.8,5.9-1.5,9-2.2c3-0.7,6-1.3,9-1.8l0,0l216.3-37.6h1.4l220.9,38.5l0.1,0c2.6,0.6,5.2,1.1,7.7,1.8
				c2.7,0.7,5.2,1.3,7.6,2l0,0c7,2.1,14.1,4.7,20.6,8c5.9,3,11.4,6.5,16.3,10.6l0.1,0c2.3,2,4.4,4.1,6.4,6.3c2,2.2,3.8,4.5,5.5,7
				l0,0c2.1,3.1,3.7,6.3,5.1,9.5c1.3,3.2,2.4,6.5,3.3,9.8l0.1,0.4l1.1,6.8l0.1,0.6l0.2,144.4l-0.1,0.6c-0.4,3-1.1,5.8-2.1,8.6
				c-0.9,2.7-2,5.4-3.1,8.1l0,0.1c-1.7,3.7-3.7,7.1-6.1,10.3c-2.4,3.3-5.1,6.3-8.2,9.1l0,0c-3.1,2.8-6.4,5.3-9.8,7.6
				c-3.4,2.2-7.1,4.3-11,6.2l-0.1,0c-3.4,1.5-6.9,3-10.5,4.3c-3.6,1.3-7.2,2.5-10.9,3.5h0c-2.7,0.7-5.5,1.4-8.4,2
				c-3,0.7-5.8,1.2-8.4,1.8l-0.1,0L300.3,482h-1.4L73,442.4l-0.3-0.1c-6.6-1.6-13.2-3.5-19.5-5.8c-6.4-2.4-12.6-5.2-18.3-8.7l0,0
				c-4.2-2.6-8-5.5-11.4-8.6c-3.5-3.2-6.6-6.7-9.3-10.5l0,0c-2.3-3.3-4-6.6-5.5-10c-1.4-3.3-2.6-6.8-3.5-10.4l-0.1-0.4l-1.1-6.8
				L4,380.5V237.9l0-0.6L4.8,232.1L4.8,232.1z M12.9,233.4l-0.7,4.8v142.1l1,6.1c0.8,3.2,1.8,6.2,3.1,9.1c1.3,2.9,2.8,5.8,4.7,8.5
				l0,0c2.4,3.3,5.1,6.4,8.1,9.2c3.1,2.8,6.5,5.4,10.3,7.8l0,0c5.3,3.2,10.9,5.9,16.8,8c6,2.2,12.3,4,18.6,5.5l-0.3-0.1l225.2,39.4
				l215.6-37.5c2.9-0.6,5.6-1.1,8.1-1.7c2.7-0.6,5.4-1.2,8.1-2h0c3.5-1,6.9-2.1,10.3-3.3c3.3-1.2,6.6-2.6,9.9-4.1l-0.1,0
				c3.5-1.7,6.9-3.5,10-5.6c3.2-2.1,6.1-4.3,8.8-6.8l0,0c2.8-2.6,5.1-5.2,7.2-8c2-2.8,3.8-5.7,5.3-8.9l0,0.1
				c1.1-2.5,2.1-4.9,2.9-7.4c0.7-2.3,1.3-4.6,1.7-7L587.1,238l-1-6.1c-0.8-3-1.7-5.9-2.9-8.7c-1.2-2.8-2.6-5.5-4.3-8.1l0,0
				c-1.5-2.2-3.1-4.2-4.8-6.1c-1.7-1.9-3.7-3.8-5.8-5.7l0.1,0c-4.3-3.7-9.3-6.8-14.7-9.5c-6.1-3.1-12.7-5.6-19.3-7.5l0,0
				c-2.5-0.7-5-1.4-7.3-2c-2.5-0.6-5-1.2-7.4-1.7l0.1,0l-220.3-38.4L84.1,181.9l0,0c-3,0.6-5.9,1.1-8.7,1.8
				c-2.8,0.6-5.7,1.3-8.5,2.1l0,0c-5.5,1.6-10.9,3.4-16.1,5.7c-5,2.2-9.9,4.7-14.4,7.8l0,0c-1.4,1-2.6,1.9-3.7,2.8
				c-1.2,0.9-2.3,1.9-3.6,2.9l0.1-0.1c-3.7,3.3-6.9,7.1-9.4,11c-2.5,3.9-4.5,8.1-5.7,12.5l0-0.1c-0.2,0.9-0.5,1.8-0.7,2.6l0,0
				C13.2,231.7,13,232.5,12.9,233.4z"/>
		</g>
	</g>
	<g>
		<path class="st2" d="M47.1,538h21.5v5.9h-14v10.4h13.1v5.9H54.6v18.3h-7.5V538z"/>
		<path class="st2" d="M87.6,537.9h21.4v6H95.2v10.3h12.6v5.9H95.2v12.6h13.7v5.9H87.6V537.9z"/>
		<path class="st2" d="M128.6,537.9h14.7c7.2,0,10.9,3.1,11.2,9.4c0,2-0.2,3.8-0.7,5.3c-0.5,1.5-1.2,2.7-2.2,3.5
			c-1,0.8-2.1,1.3-3.5,1.5c1.6,0.2,2.8,0.7,3.7,1.4c0.9,0.7,1.4,1.5,1.7,2.3c0.3,0.9,0.5,1.9,0.5,3.1c0,1.2,0.1,2.1,0.1,2.8
			c0.1,3,0.3,5.6,0.5,7.7c0.2,2.1,0.7,3.1,1.4,3.1v0.8h-8.7c-0.2-1.2-0.3-2.7-0.4-4.6s-0.2-3.3-0.4-4.3v-2.7c0-2-0.4-3.4-1.2-4.3
			c-0.8-0.9-2.5-1.4-5.1-1.4h-4v17.4h-7.6V537.9z M141.8,543.9h-5.5v11.2h5.3c1.7,0,2.9-0.5,3.8-1.6c0.8-1,1.3-2.4,1.3-4
			c0-2-0.4-3.4-1.1-4.3C144.8,544.3,143.6,543.9,141.8,543.9z"/>
		<path class="st2" d="M198.2,543.9h-8.8v34.7h-7.6v-34.7H173v-6h25.2V543.9z"/>
		<path class="st2" d="M216.7,537.9h7.6v40.6h-7.6V537.9z"/>
		<path class="st2" d="M245.6,537.9h7.5v34.8h14.2v5.9h-21.7V537.9z"/>
		<path class="st2" d="M286.6,537.9h7.6v40.6h-7.6V537.9z"/>
		<path class="st2" d="M328.4,543.9h-14V538h22.2v6.1c-1.7,3.2-3,5.7-4,7.7c-1,2-2.1,4.2-3.4,6.5c-1.2,2.4-2.2,4.2-2.8,5.4
			c-0.6,1.2-2.2,4.2-4.6,8.9h15.3v5.9h-23.6v-6L328.4,543.9z"/>
		<path class="st2" d="M362.9,537.9h10.3l9.1,40.6h-8.2l-1.9-10.2h-8.9l-2.1,10.2h-8L362.9,537.9z M371,562.3l-2.4-13.6l-0.7-6.2
			h-0.1l-0.6,6.2l-2.8,13.6H371z"/>
		<path class="st2" d="M400.5,537.9h7.9l7.7,19.7l3.7,11.8c-0.2-2.2-0.3-4.3-0.5-6.5c-0.2-2.2-0.3-4.4-0.4-6.5
			c-0.1-2.1-0.2-4-0.3-5.6c-0.1-1.6-0.1-2.9-0.1-3.9v-9.1h7.6v40.6h-7.8l-8.1-20l-3.4-10.8c0.1,1.7,0.2,3.3,0.3,4.9
			c0.1,1.6,0.2,3.5,0.4,5.7c0.1,2.2,0.2,4.1,0.3,5.7c0.1,1.6,0.1,3,0.1,4.2v10.3h-7.5V537.9z"/>
		<path class="st2" d="M469.9,543.9h-8.8v34.7h-7.6v-34.7h-8.8v-6h25.2V543.9z"/>
		<path class="st2" d="M488.2,537.9h21.4v6h-13.7v10.3h12.6v5.9h-12.6v12.6h13.7v5.9h-21.4V537.9z"/>
		<path class="st2" d="M544.9,550.3c0-2.6-0.4-4.5-1.2-5.6c-0.8-1.1-1.9-1.6-3.4-1.6c-1.1,0-2.1,0.4-2.9,1.1
			c-0.8,0.7-1.3,1.7-1.3,2.8c0.1,0.8,0.3,1.7,0.8,2.5c0.5,0.8,1.1,1.5,2,2.1c0.5,0.3,1.9,1.2,4.1,2.6c2.2,1.4,4,2.7,5.2,3.7
			c1.3,1,2.3,2.2,3.2,3.5c0.9,1.3,1.4,2.7,1.6,4.1c0.1,1,0.1,1.8,0.1,2.2c0,2-0.3,3.7-0.9,5.1c-0.6,1.4-1.4,2.6-2.4,3.5
			c-1,0.9-2.2,1.6-3.5,2.1c-1.3,0.5-2.7,0.8-4.1,0.9h-1.2c-3.9,0-7-0.9-9.3-2.7c-2.3-1.8-3.5-5.1-3.5-9.8c0.1-1.2,0.2-2.2,0.2-2.8
			h7.6c0,0.3,0,0.7-0.1,1.1c0,0.5-0.1,0.9-0.1,1.3c0,2.2,0.5,3.9,1.4,5.1c0.9,1.1,2.1,1.7,3.5,1.8c0.9-0.1,1.7-0.2,2.2-0.4
			c0.6-0.1,1.1-0.6,1.6-1.5c0.5-0.9,0.7-1.8,0.7-2.8c0-2.3-1.2-4.3-3.7-6c-2-1.3-3.6-2.4-5-3.3c-1.4-0.9-2.7-2-4-3.2
			c-1.3-1.2-2.3-2.6-3.1-4.1c-0.7-1.5-1.1-3.2-1.1-5.2c0.3-6.3,3.9-9.6,10.8-10c2.7,0,5,0.4,7,1.2c1.9,0.8,3.4,2.1,4.4,3.9
			c1,1.8,1.5,4.1,1.5,6.9v1.3H544.9z"/>
	</g>
	<g>
		<path class="st3" d="M158.4,55.7v-6.9h26.1v31.8h-5.2l-1.9-7.7c-1.1,1.4-2.3,2.7-3.7,3.9c-1.4,1.1-3,2.1-4.7,2.9
			c-1.7,0.8-3.5,1.4-5.4,1.8c-1.9,0.4-3.9,0.6-5.8,0.6c-4.5,0-8.2-0.6-11-1.9c-2.8-1.3-5.2-2.9-7.2-4.8c-2.2-2.1-3.9-4.3-5.2-6.5
			c-1.3-2.2-2.2-4.4-2.8-6.7c-0.6-2.3-1-4.3-1.1-6.2c-0.1-1.9-0.2-3.8-0.2-5.7c0-3.7,0.6-7.3,1.7-11c1.1-3.7,2.9-7,5.3-10
			c2.4-3,5.3-5.4,8.9-7.1c3.6-1.8,7.7-2.6,12.3-2.6c3.9,0,7.6,0.7,11.3,2.2c3.7,1.5,6.7,3.7,9.3,6.6s4.1,6.6,4.6,10.8h-7.8
			c-1.2-4.7-3.4-7.9-6.7-9.8c-3.3-1.8-7-2.8-11.1-2.8c-3.6,0-6.9,0.9-9.9,2.8c-3,1.9-5.3,4.6-7,8.3c-1.7,3.7-2.6,8-2.6,13
			c0,4.5,0.6,8.5,1.8,12.2c1.2,3.7,3.2,6.6,6.2,8.9c3,2.3,6.9,3.4,11.9,3.4c2.1,0,4.2-0.3,6.2-0.8c2.1-0.5,4.1-1.5,5.9-3
			c2.5-2,4.2-4.2,5.1-6.8c0.9-2.6,1.4-5.6,1.4-9H158.4z"/>
		<path class="st3" d="M216.7,55.1v25.5h-8.1V21.2h27.5c5.7,0,10.3,1.2,14,3.7c3.7,2.4,5.5,6.5,5.5,12.3c0,4-0.7,7-2.2,9
			c-1.5,2-3.5,3.8-6,5.3c2.2,0.9,4,2.1,5.1,3.5c1.2,1.4,1.8,4,2,7.7l0.5,10.8c0.1,1.7,0.3,3,0.6,3.7c0.3,0.8,1.1,1.5,2.4,2.2v1.3
			h-9.9c-0.5-1.6-0.9-4.1-1.1-7.3c-0.2-3.3-0.3-5.8-0.3-7.6c0-3.2-0.7-5.7-2-7.7c-1.4-1.9-4.2-2.9-8.6-2.9H216.7z M216.7,28v20.2
			h18.7c3.6,0,6.5-0.7,8.7-2.1c2.2-1.4,3.4-4.1,3.4-8.1c0-4-1.1-6.7-3.2-8c-2.1-1.3-4.6-1.9-7.6-1.9H216.7z"/>
		<path class="st3" d="M317.3,21.2h8.1v38.6c0,3.1-0.5,6-1.5,8.7c-1,2.7-2.5,5.1-4.5,7.2c-2,2.1-4.5,3.7-7.5,4.9
			c-3,1.2-6.5,1.7-10.5,1.7c-3.8,0-7.2-0.6-10.1-1.7c-2.9-1.1-5.3-2.7-7.2-4.7c-1.9-2-3.3-4.3-4.2-6.9s-1.4-5.2-1.4-8.1V21.2h8.1
			v37.4c0,4.1,0.7,7.4,2.2,9.8c1.4,2.4,3.3,4.2,5.6,5.2c2.3,1,4.7,1.5,7.3,1.5c2.7,0,5.3-0.5,7.6-1.5c2.3-1,4.3-2.7,5.8-5.2
			c1.5-2.5,2.3-5.7,2.3-9.7V21.2z"/>
		<path class="st3" d="M357.8,55.5v25.1h-8.1V21.2h26.8c3.6,0,6.8,0.7,9.4,2.2c2.7,1.4,4.7,3.4,6.1,5.9c1.4,2.5,2.1,5.4,2.1,8.6
			c0,2.2-0.3,4.4-1,6.4s-1.7,4-3.1,5.6c-1.4,1.7-3.3,3-5.6,4c-2.3,1-5,1.5-8,1.5H357.8z M357.8,28v20.6h16c2.5,0,4.7-0.3,6.5-1
			c1.8-0.7,3.1-1.8,4.1-3.4c1-1.6,1.5-3.7,1.5-6.3c0-3.5-1.1-6.1-3.2-7.6c-2.1-1.5-5-2.3-8.6-2.3H357.8z"/>
		<path class="st3" d="M469.9,50.9c0,3.6-0.5,7.1-1.5,10.7c-1,3.6-2.6,6.9-4.9,10.1c-2.3,3.1-5.3,5.7-9.1,7.6
			c-3.8,1.9-8.3,2.9-13.5,2.9c-5.2,0-9.7-1-13.5-2.9c-3.8-2-6.9-4.5-9.1-7.7c-2.3-3.2-3.9-6.6-4.9-10.2c-1-3.6-1.5-7.1-1.5-10.5
			c0-3.5,0.5-7,1.5-10.6c1-3.6,2.6-7,4.9-10.1c2.3-3.1,5.3-5.7,9.1-7.6c3.8-2,8.3-2.9,13.6-2.9c5.3,0,9.8,1,13.6,2.9
			c3.7,1.9,6.7,4.5,9,7.6c2.3,3.1,3.9,6.5,4.9,10.1C469.4,43.7,469.9,47.3,469.9,50.9z M461.6,50.9c0-3.5-0.5-6.7-1.4-9.7
			c-0.9-3-2.3-5.5-4.1-7.7c-1.8-2.2-4-3.9-6.6-5c-2.6-1.2-5.5-1.8-8.6-1.8c-3.2,0-6,0.6-8.6,1.8c-2.6,1.2-4.8,2.9-6.6,5
			c-1.8,2.2-3.2,4.7-4.1,7.7s-1.4,6.2-1.4,9.7c0,3.5,0.5,6.7,1.4,9.6c0.9,3,2.3,5.5,4.1,7.7c1.8,2.2,4,3.9,6.6,5.1
			c2.6,1.2,5.5,1.8,8.6,1.8c4.2,0,7.8-1,11-3.1c3.2-2.1,5.6-5,7.2-8.6C460.8,59.7,461.6,55.5,461.6,50.9z"/>
	</g>
</g>
</svg>
