<?xml version="1.0" encoding="UTF-8"?>
<!DOCTYPE svg PUBLIC "-//W3C//DTD SVG 1.1//EN" "http://www.w3.org/Graphics/SVG/1.1/DTD/svg11.dtd">
<!-- Creator: CorelDRAW 2020 (64 Bit) -->
<svg xmlns="http://www.w3.org/2000/svg" xml:space="preserve" width="27.31mm" height="5.291mm" version="1.1" style="shape-rendering:geometricPrecision; text-rendering:geometricPrecision; image-rendering:optimizeQuality; fill-rule:evenodd; clip-rule:evenodd"
viewBox="0 0 2731 529.1"
 xmlns:xlink="http://www.w3.org/1999/xlink"
 xmlns:xodm="http://www.corel.com/coreldraw/odm/2003">
 <defs>
  <style type="text/css">
   <![CDATA[
    .fil0 {fill:#ED3237}
    .fil2 {fill:#373435;fill-rule:nonzero}
    .fil1 {fill:#ED3237;fill-rule:nonzero}
   ]]>
  </style>
 </defs>
 <g id="Camada_x0020_1">
  <metadata id="CorelCorpID_0Corel-Layer"/>
  <g id="_2061231732544">
   <path class="fil0" d="M575.62 296.45c0,7.39 -5.49,13.37 -12.22,13.36 -6.74,0 -12.21,-6.01 -12.19,-13.4 0.02,-7.39 5.47,-13.37 12.23,-13.36 6.75,0.01 12.18,6 12.18,13.4z"/>
   <path class="fil1" d="M317.95 418.34l-76.63 -271.12 -2.28 -0.01c3.54,46.2 5.23,82.03 5.2,107.59l-0.24 163.43 -90.01 -0.13 0.54 -376.22 135.33 0.19 78.13 267.27 2.11 0 77.3 -267.04 135.6 0.19 -0.54 376.23 -93.44 -0.14 0.24 -164.93c0.02,-8.6 0.2,-18.09 0.48,-28.62 0.28,-10.45 1.45,-36.1 3.54,-76.92l-2.3 -0.01 -76.35 270.38 -96.68 -0.14z"/>
   <path class="fil1" d="M833.95 419.08l-18.35 -70.64 -122.24 -0.18 -19.08 70.58 -111.69 -0.16 123.22 -377.62 135.58 0.2 123.73 377.97 -111.17 -0.15zm-39.39 -153.92l-16.07 -61.85c-3.77,-13.71 -8.3,-31.45 -13.71,-53.24 -5.33,-21.88 -8.91,-37.43 -10.57,-46.91 -1.59,8.78 -4.68,23.18 -9.19,43.28 -4.6,20.01 -14.76,59.61 -30.47,118.6l80.01 0.12z"/>
   <path class="fil1" d="M1082.94 121.2c-24.14,-0.04 -43.04,9.86 -56.6,29.6 -13.63,19.83 -20.43,47.12 -20.47,81.99 -0.11,72.37 27.41,108.58 82.47,108.66 16.6,0.03 32.76,-2.23 48.4,-6.86 15.55,-4.64 31.28,-10.15 47.09,-16.71l-0.12 86.06c-31.46,13.93 -66.95,20.81 -106.55,20.75 -56.83,-0.08 -100.27,-16.65 -130.52,-49.62 -30.24,-32.98 -45.28,-80.61 -45.2,-142.87 0.05,-38.9 7.4,-73.14 22.11,-102.63 14.7,-29.49 35.82,-52.11 63.4,-67.97 27.61,-15.86 59.94,-23.71 97.18,-23.66 40.64,0.06 79.45,8.9 116.49,26.6l-31.2 79.96c-13.87,-6.61 -27.83,-12.07 -41.68,-16.57 -13.88,-4.5 -28.81,-6.72 -44.8,-6.73z"/>
   <polygon class="fil1" points="1519.12,420.06 1416.99,419.91 1417.2,266.57 1299.18,266.4 1298.96,419.74 1196.83,419.6 1197.37,43.37 1299.49,43.52 1299.29,183.15 1417.32,183.32 1417.52,43.69 1519.65,43.83 "/>
   <path class="fil1" d="M1771.03 420.41l-18.34 -70.63 -122.24 -0.17 -19.08 70.58 -111.7 -0.16 123.22 -377.63 135.6 0.19 123.72 377.99 -111.18 -0.17zm-39.38 -153.92l-16.06 -61.84c-3.77,-13.71 -8.3,-31.46 -13.72,-53.24 -5.32,-21.88 -8.9,-37.43 -10.56,-46.91 -1.59,8.78 -4.69,23.18 -9.19,43.28 -4.61,20.02 -14.75,59.61 -30.48,118.61l80.01 0.1z"/>
   <path class="fil1" d="M2182.28 224.9c-0.1,62.8 -17.47,111.16 -52.03,145.1 -34.64,33.93 -83.24,50.81 -145.85,50.72l-121.72 -0.17 0.53 -376.23 130.24 0.19c60.33,0.08 106.95,15.61 139.74,46.48 32.81,30.96 49.17,75.6 49.09,133.91zm-105.49 3.63c0.05,-34.52 -6.77,-60.08 -20.35,-76.79 -13.58,-16.62 -34.29,-24.99 -62.13,-25.03l-29.61 -0.04 -0.3 210.76 22.67 0.04c30.9,0.04 53.58,-8.87 68.01,-26.78 14.42,-17.89 21.66,-45.28 21.71,-82.16z"/>
   <path class="fil1" d="M2541.41 232.96c-0.1,63.32 -15.62,111.43 -46.76,144.31 -31.05,32.9 -76.55,49.34 -136.44,49.26 -59.04,-0.09 -104.23,-16.76 -135.71,-49.9 -31.39,-33.16 -47.04,-81.4 -46.95,-144.63 0.09,-62.61 15.79,-110.45 47.19,-143.43 31.3,-32.98 76.82,-49.41 136.54,-49.33 59.89,0.09 105.18,16.57 136.05,49.37 30.87,32.8 46.18,80.95 46.08,144.35zm-258.81 -0.45c-0.1,72.71 25.14,109.1 75.71,109.18 25.74,0.03 44.9,-8.81 57.31,-26.44 12.49,-17.64 18.78,-45.11 18.83,-82.52 0.05,-37.59 -6.25,-65.35 -18.85,-83.29 -12.54,-17.93 -31.41,-26.92 -56.43,-26.95 -50.94,-0.07 -76.46,36.6 -76.57,110.02z"/>
   <path class="fil2" d="M2565.86 43.74c6.6,0.01 12.94,1.61 19,4.81 6.08,3.2 10.84,7.77 14.29,13.73 3.47,5.97 5.19,12.2 5.18,18.7 -0.01,6.48 -1.71,12.66 -5.13,18.52 -3.42,5.86 -8.16,10.44 -14.27,13.72 -6.08,3.26 -12.49,4.9 -19.18,4.89 -6.71,-0.01 -13.1,-1.66 -19.19,-4.95 -6.08,-3.29 -10.83,-7.88 -14.22,-13.76 -3.38,-5.87 -5.08,-12.05 -5.07,-18.53 0.01,-6.5 1.75,-12.72 5.24,-18.69 3.47,-5.94 8.24,-10.51 14.32,-13.68 6.08,-3.19 12.42,-4.78 19.03,-4.76zm0.03 7.29c-5.31,-0.01 -10.38,1.26 -15.25,3.8 -4.85,2.55 -8.69,6.22 -11.5,11.01 -2.83,4.78 -4.21,9.8 -4.23,15.04 -0.01,5.22 1.36,10.19 4.09,14.92 2.72,4.73 6.53,8.43 11.42,11.08 4.88,2.67 10.02,4 15.39,4.01 5.39,0 10.53,-1.31 15.43,-3.96 4.88,-2.65 8.68,-6.34 11.45,-11.06 2.75,-4.72 4.12,-9.68 4.13,-14.9 0.02,-5.24 -1.37,-10.27 -4.15,-15.06 -2.81,-4.79 -6.65,-8.48 -11.52,-11.03 -4.87,-2.56 -9.96,-3.84 -15.26,-3.85zm-17.53 49.77l0.05 -39.45 8.31 0.01c7.79,0 12.14,0.05 13.07,0.11 2.76,0.23 4.9,0.76 6.43,1.59 1.53,0.83 2.79,2.09 3.81,3.78 1.03,1.71 1.53,3.6 1.53,5.67 0,2.83 -0.98,5.27 -2.92,7.28 -1.92,2.04 -4.63,3.28 -8.12,3.77 1.23,0.45 2.19,0.95 2.86,1.48 0.68,0.53 1.6,1.55 2.76,3.04 0.32,0.38 1.3,1.99 3.02,4.81l4.81 7.96 -10.24 -0.01 -3.44 -6.4c-2.29,-4.32 -4.2,-7.04 -5.71,-8.15 -1.5,-1.11 -3.42,-1.68 -5.74,-1.68l-2.14 -0.01 -0.03 16.21 -8.31 -0.01zm8.35 -22.41l3.36 0c4.78,0.01 7.76,-0.17 8.94,-0.51 1.15,-0.36 2.04,-0.97 2.73,-1.87 0.69,-0.89 1.01,-1.9 1.02,-3.03 0,-1.11 -0.32,-2.09 -0.98,-2.94 -0.65,-0.86 -1.58,-1.47 -2.81,-1.86 -1.19,-0.36 -4.17,-0.55 -8.89,-0.55l-3.37 -0.01 0 10.77z"/>
   <path class="fil2" d="M202.93 489.86c-0.01,3.72 -0.98,7.07 -2.92,10.04 -1.91,2.98 -4.73,5.29 -8.43,6.97 -3.72,1.68 -8.12,2.5 -13.19,2.49 -6.09,-0.01 -11.12,-1.15 -15.07,-3.45 -2.79,-1.65 -5.06,-3.87 -6.81,-6.63 -1.76,-2.77 -2.63,-5.45 -2.63,-8.07 0,-1.51 0.54,-2.8 1.6,-3.89 1.05,-1.08 2.38,-1.61 4,-1.61 1.33,0.01 2.43,0.42 3.34,1.27 0.92,0.84 1.68,2.09 2.34,3.76 0.76,1.95 1.62,3.61 2.54,4.91 0.91,1.33 2.18,2.43 3.84,3.29 1.66,0.85 3.83,1.28 6.53,1.29 3.69,0 6.72,-0.85 9.03,-2.58 2.31,-1.72 3.49,-3.87 3.5,-6.46 0,-2.05 -0.63,-3.72 -1.88,-4.99 -1.25,-1.28 -2.87,-2.26 -4.84,-2.94 -1.97,-0.67 -4.62,-1.4 -7.93,-2.16 -4.43,-1.04 -8.14,-2.27 -11.12,-3.65 -2.98,-1.4 -5.36,-3.31 -7.11,-5.71 -1.74,-2.4 -2.61,-5.38 -2.61,-8.96 0.01,-3.39 0.93,-6.4 2.77,-9.05 1.87,-2.62 4.56,-4.65 8.07,-6.06 3.51,-1.42 7.63,-2.11 12.38,-2.11 3.77,0.01 7.05,0.48 9.83,1.42 2.75,0.95 5.05,2.21 6.88,3.76 1.8,1.56 3.13,3.2 3.97,4.91 0.84,1.71 1.26,3.39 1.26,5.02 0,1.48 -0.53,2.82 -1.58,4.02 -1.05,1.19 -2.38,1.77 -3.95,1.77 -1.42,0 -2.51,-0.36 -3.25,-1.06 -0.74,-0.72 -1.55,-1.91 -2.4,-3.53 -1.14,-2.32 -2.47,-4.15 -4.06,-5.46 -1.57,-1.31 -4.09,-1.97 -7.58,-1.97 -3.23,-0.01 -5.84,0.69 -7.8,2.12 -2,1.42 -2.98,3.11 -2.98,5.1 0,1.24 0.32,2.31 0.99,3.22 0.68,0.88 1.62,1.66 2.79,2.31 1.17,0.65 2.36,1.15 3.57,1.53 1.22,0.35 3.2,0.89 5.99,1.6 3.47,0.83 6.63,1.72 9.45,2.72 2.82,0.98 5.21,2.17 7.18,3.59 1.99,1.39 3.51,3.18 4.63,5.32 1.11,2.15 1.66,4.79 1.66,7.91zm142.73 -6.81l0.04 -29.68c0,-2.53 0.59,-4.41 1.73,-5.67 1.13,-1.26 2.62,-1.89 4.48,-1.89 1.92,0 3.46,0.64 4.59,1.9 1.13,1.27 1.71,3.17 1.71,5.68l-0.04 30.36c-0.01,3.46 0.37,6.34 1.14,8.66 0.77,2.32 2.13,4.11 4.09,5.4 1.97,1.28 4.71,1.92 8.24,1.92 4.89,0.01 8.35,-1.29 10.37,-3.88 2.04,-2.6 3.04,-6.53 3.05,-11.81l0.04 -30.61c0,-2.54 0.58,-4.45 1.69,-5.7 1.12,-1.25 2.64,-1.87 4.53,-1.87 1.86,0.01 3.38,0.63 4.55,1.88 1.16,1.25 1.75,3.16 1.75,5.7l-0.05 29.69c0,4.82 -0.49,8.86 -1.42,12.07 -0.96,3.24 -2.74,6.07 -5.36,8.51 -2.23,2.06 -4.84,3.57 -7.82,4.52 -2.98,0.95 -6.46,1.42 -10.45,1.41 -4.74,0 -8.82,-0.53 -12.25,-1.55 -3.41,-1.02 -6.21,-2.62 -8.36,-4.77 -2.16,-2.14 -3.74,-4.9 -4.75,-8.25 -1,-3.36 -1.51,-7.37 -1.5,-12.02zm221.43 1.78l-11.46 -0.02 -0.02 17.48c-0.01,2.5 -0.61,4.38 -1.77,5.67 -1.19,1.3 -2.69,1.94 -4.47,1.94 -1.88,-0.01 -3.4,-0.64 -4.56,-1.92 -1.15,-1.28 -1.7,-3.17 -1.7,-5.62l0.06 -47.59c0,-2.73 0.65,-4.71 1.9,-5.88 1.28,-1.18 3.27,-1.76 6.02,-1.76l16.05 0.02c4.73,0 8.39,0.37 10.95,1.11 2.52,0.71 4.7,1.87 6.54,3.5 1.83,1.64 3.24,3.62 4.18,5.98 0.96,2.36 1.42,5.02 1.42,7.97 -0.01,6.29 -1.95,11.05 -5.83,14.28 -3.87,3.24 -9.65,4.85 -17.31,4.84zm-3 -28.29l-8.41 -0.01 -0.04 18.89 8.42 0.01c2.96,0.01 5.42,-0.31 7.41,-0.93 1.97,-0.61 3.48,-1.61 4.52,-3.02 1.04,-1.39 1.57,-3.25 1.57,-5.52 0,-2.73 -0.81,-4.94 -2.38,-6.66 -1.8,-1.83 -5.5,-2.75 -11.09,-2.76zm209.31 0.56l-28.19 -0.04 -0.02 15.17 25.94 0.05c1.92,0 3.34,0.43 4.28,1.28 0.94,0.84 1.4,1.98 1.4,3.38 0,1.39 -0.47,2.54 -1.4,3.41 -0.92,0.88 -2.34,1.32 -4.28,1.32l-25.94 -0.03 -0.03 17.58 29.12 0.05c1.97,0 3.46,0.47 4.45,1.37 1.01,0.91 1.51,2.13 1.5,3.64 0,1.45 -0.51,2.64 -1.5,3.55 -1,0.9 -2.49,1.35 -4.45,1.35l-33.98 -0.04c-2.71,-0.01 -4.66,-0.61 -5.86,-1.82 -1.19,-1.21 -1.79,-3.17 -1.78,-5.85l0.05 -46.43c0,-1.79 0.28,-3.26 0.82,-4.39 0.54,-1.14 1.36,-1.97 2.5,-2.48 1.13,-0.52 2.6,-0.77 4.36,-0.77l33.01 0.04c2.01,0.01 3.48,0.46 4.45,1.33 0.95,0.9 1.43,2.06 1.43,3.48 0,1.47 -0.49,2.65 -1.44,3.54 -0.97,0.88 -2.46,1.31 -4.44,1.31zm165.63 25.94l-4.39 -0.01 -0.02 19.8c0,2.62 -0.59,4.52 -1.73,5.76 -1.15,1.24 -2.67,1.85 -4.51,1.85 -2,0 -3.54,-0.66 -4.64,-1.95 -1.09,-1.29 -1.64,-3.17 -1.63,-5.68l0.07 -47.49c0.01,-2.69 0.61,-4.65 1.82,-5.85 1.21,-1.2 3.17,-1.8 5.86,-1.8l20.34 0.03c2.79,0 5.19,0.12 7.19,0.37 1.99,0.24 3.79,0.73 5.39,1.45 1.93,0.83 3.65,1.99 5.13,3.5 1.49,1.53 2.62,3.3 3.37,5.3 0.78,2.02 1.17,4.14 1.16,6.39 0,4.61 -1.3,8.28 -3.91,11.04 -2.6,2.74 -6.55,4.68 -11.82,5.83 2.21,1.18 4.34,2.92 6.36,5.23 2,2.3 3.81,4.76 5.39,7.34 1.57,2.62 2.81,4.94 3.7,7.04 0.87,2.08 1.32,3.53 1.32,4.31 -0.01,0.8 -0.27,1.61 -0.78,2.42 -0.52,0.8 -1.23,1.43 -2.14,1.89 -0.88,0.46 -1.94,0.68 -3.11,0.68 -1.41,0 -2.58,-0.33 -3.53,-0.99 -0.96,-0.67 -1.78,-1.5 -2.47,-2.51 -0.68,-1 -1.61,-2.5 -2.78,-4.46l-5.01 -8.34c-1.79,-3.04 -3.4,-5.37 -4.81,-6.97 -1.42,-1.62 -2.86,-2.71 -4.32,-3.3 -1.45,-0.6 -3.29,-0.88 -5.5,-0.88zm7.2 -25.95l-11.55 -0.01 -0.01 16.98 11.19 0.01c2.99,0.01 5.53,-0.24 7.59,-0.76 2.03,-0.51 3.59,-1.4 4.68,-2.65 1.08,-1.25 1.62,-2.98 1.63,-5.16 0,-1.72 -0.43,-3.23 -1.31,-4.54 -0.86,-1.31 -2.06,-2.29 -3.61,-2.94 -1.44,-0.62 -4.32,-0.92 -8.61,-0.93zm190.87 43.3l-9.84 -39.33 -0.05 42.6c-0.01,2.35 -0.54,4.11 -1.59,5.29 -1.07,1.18 -2.46,1.77 -4.17,1.77 -1.69,-0.01 -3.07,-0.59 -4.13,-1.76 -1.07,-1.17 -1.6,-2.93 -1.6,-5.32l0.08 -48.83c0.01,-2.71 0.71,-4.52 2.1,-5.47 1.41,-0.93 3.31,-1.4 5.68,-1.4l3.89 0.01c2.33,0 4,0.22 5.06,0.64 1.04,0.42 1.84,1.18 2.34,2.27 0.48,1.09 1.07,2.88 1.71,5.36l8.92 33.83 9.01 -33.82c0.65,-2.46 1.24,-4.24 1.73,-5.33 0.51,-1.1 1.29,-1.86 2.34,-2.27 1.05,-0.42 2.75,-0.63 5.07,-0.62l3.87 0c2.39,0.01 4.28,0.48 5.69,1.41 1.38,0.96 2.08,2.77 2.08,5.47l-0.06 48.83c0,2.36 -0.54,4.13 -1.6,5.3 -1.05,1.18 -2.46,1.77 -4.2,1.76 -1.65,0 -3.03,-0.59 -4.08,-1.77 -1.07,-1.18 -1.6,-2.95 -1.6,-5.31l0.07 -42.59 -9.96 39.31c-0.65,2.54 -1.16,4.42 -1.58,5.61 -0.42,1.18 -1.17,2.27 -2.26,3.24 -1.1,1 -2.62,1.48 -4.55,1.48 -1.48,-0.01 -2.7,-0.32 -3.71,-0.96 -1,-0.62 -1.79,-1.43 -2.35,-2.41 -0.57,-1 -1.01,-2.07 -1.33,-3.27 -0.32,-1.19 -0.65,-2.44 -0.98,-3.72zm223.74 -42.45l-28.16 -0.04 -0.02 15.18 25.94 0.03c1.91,0 3.33,0.44 4.27,1.29 0.94,0.85 1.41,1.99 1.39,3.38 0,1.39 -0.46,2.54 -1.37,3.42 -0.93,0.87 -2.37,1.32 -4.3,1.32l-25.94 -0.04 -0.04 17.59 29.14 0.04c1.96,0 3.45,0.46 4.44,1.37 1,0.91 1.51,2.13 1.51,3.64 0,1.45 -0.51,2.65 -1.52,3.54 -0.99,0.91 -2.48,1.37 -4.44,1.37l-33.97 -0.06c-2.72,0 -4.68,-0.61 -5.86,-1.81 -1.19,-1.21 -1.8,-3.17 -1.8,-5.86l0.07 -46.42c0,-1.79 0.28,-3.25 0.81,-4.39 0.54,-1.13 1.37,-1.97 2.5,-2.48 1.14,-0.52 2.6,-0.77 4.36,-0.77l33.02 0.04c1.98,0 3.47,0.45 4.42,1.33 0.97,0.89 1.46,2.06 1.45,3.48 0,1.47 -0.49,2.65 -1.46,3.54 -0.95,0.87 -2.44,1.32 -4.44,1.31zm165.65 25.94l-4.39 -0.01 -0.01 19.8c-0.01,2.62 -0.59,4.53 -1.74,5.76 -1.16,1.23 -2.66,1.85 -4.5,1.85 -2,-0.01 -3.56,-0.65 -4.65,-1.94 -1.09,-1.3 -1.63,-3.19 -1.63,-5.68l0.08 -47.51c0,-2.68 0.61,-4.64 1.81,-5.84 1.2,-1.21 3.16,-1.8 5.86,-1.8l20.33 0.03c2.79,0 5.2,0.12 7.19,0.36 2,0.25 3.8,0.73 5.4,1.47 1.93,0.82 3.65,1.99 5.14,3.5 1.47,1.52 2.61,3.29 3.36,5.29 0.78,2.01 1.17,4.14 1.17,6.4 -0.01,4.59 -1.31,8.27 -3.92,11.03 -2.6,2.74 -6.55,4.69 -11.81,5.83 2.2,1.18 4.33,2.92 6.35,5.23 2.01,2.3 3.81,4.76 5.38,7.35 1.58,2.6 2.81,4.93 3.7,7.03 0.89,2.08 1.33,3.52 1.33,4.31 0,0.81 -0.26,1.61 -0.79,2.41 -0.51,0.81 -1.21,1.44 -2.13,1.9 -0.89,0.46 -1.94,0.69 -3.11,0.69 -1.39,0 -2.59,-0.33 -3.55,-1 -0.94,-0.66 -1.75,-1.5 -2.45,-2.5 -0.68,-1.02 -1.62,-2.51 -2.79,-4.46l-4.99 -8.35c-1.8,-3.05 -3.4,-5.37 -4.81,-6.98 -1.42,-1.6 -2.87,-2.7 -4.33,-3.29 -1.44,-0.59 -3.28,-0.88 -5.5,-0.88zm7.2 -25.95l-11.54 -0.02 -0.04 16.99 11.21 0.02c3,0.01 5.53,-0.26 7.59,-0.77 2.03,-0.51 3.6,-1.41 4.68,-2.65 1.09,-1.25 1.63,-2.97 1.63,-5.15 0,-1.73 -0.42,-3.24 -1.3,-4.55 -0.86,-1.31 -2.07,-2.29 -3.62,-2.94 -1.44,-0.62 -4.31,-0.92 -8.61,-0.93zm221.52 33.16c0,1.96 -0.48,4.09 -1.46,6.38 -0.97,2.27 -2.5,4.52 -4.59,6.72 -2.07,2.2 -4.73,3.98 -7.95,5.36 -3.24,1.36 -7,2.04 -11.29,2.04 -3.25,-0.01 -6.22,-0.32 -8.89,-0.93 -2.65,-0.63 -5.08,-1.59 -7.26,-2.9 -2.16,-1.3 -4.18,-3.03 -5.98,-5.16 -1.63,-1.94 -3.03,-4.09 -4.17,-6.5 -1.14,-2.4 -2.01,-4.98 -2.57,-7.7 -0.58,-2.73 -0.85,-5.61 -0.85,-8.67 0,-4.97 0.73,-9.42 2.18,-13.34 1.45,-3.93 3.53,-7.29 6.23,-10.07 2.71,-2.8 5.85,-4.91 9.48,-6.38 3.62,-1.44 7.49,-2.17 11.58,-2.16 5,0 9.44,1.01 13.35,3.01 3.9,1.98 6.88,4.46 8.95,7.39 2.07,2.94 3.12,5.7 3.11,8.32 0,1.44 -0.52,2.68 -1.53,3.79 -1,1.09 -2.23,1.63 -3.66,1.63 -1.61,0 -2.81,-0.4 -3.59,-1.14 -0.81,-0.76 -1.7,-2.07 -2.67,-3.92 -1.64,-3.07 -3.55,-5.36 -5.74,-6.88 -2.2,-1.52 -4.91,-2.28 -8.14,-2.28 -5.15,-0.01 -9.23,1.94 -12.29,5.82 -3.05,3.91 -4.57,9.46 -4.58,16.64 -0.02,4.8 0.66,8.8 2.01,11.98 1.32,3.2 3.23,5.58 5.7,7.16 2.46,1.57 5.36,2.36 8.68,2.36 3.59,0.01 6.63,-0.87 9.12,-2.65 2.48,-1.78 4.35,-4.39 5.61,-7.85 0.54,-1.63 1.21,-2.95 2,-3.98 0.78,-1.02 2.05,-1.53 3.78,-1.53 1.49,0 2.78,0.52 3.84,1.57 1.05,1.03 1.59,2.33 1.59,3.87zm182.72 12.76l-2.93 -7.75 -25.08 -0.03 -2.97 7.89c-1.15,3.1 -2.13,5.17 -2.94,6.25 -0.81,1.07 -2.16,1.62 -4.01,1.62 -1.56,0 -2.95,-0.58 -4.17,-1.73 -1.2,-1.15 -1.8,-2.46 -1.8,-3.91 0,-0.85 0.15,-1.73 0.43,-2.61 0.28,-0.91 0.75,-2.15 1.4,-3.76l15.84 -40.04c0.46,-1.15 0.99,-2.53 1.61,-4.14 0.64,-1.62 1.32,-2.96 2.04,-4.02 0.72,-1.07 1.65,-1.92 2.83,-2.58 1.15,-0.66 2.6,-0.99 4.3,-0.99 1.76,0.01 3.22,0.34 4.37,1 1.16,0.66 2.1,1.51 2.82,2.55 0.72,1.04 1.31,2.16 1.8,3.35 0.49,1.19 1.13,2.79 1.86,4.78l16.06 39.84c1.28,3.04 1.9,5.23 1.9,6.62 -0.01,1.41 -0.6,2.73 -1.79,3.93 -1.2,1.19 -2.64,1.77 -4.33,1.77 -0.98,0 -1.82,-0.17 -2.52,-0.53 -0.7,-0.35 -1.29,-0.82 -1.77,-1.42 -0.47,-0.61 -0.98,-1.55 -1.53,-2.78 -0.55,-1.25 -1,-2.36 -1.42,-3.31zm-24.71 -17.18l18.43 0.03 -9.25 -25.46 -9.18 25.43zm187.08 -37.33l16.3 0.03c4.25,0 7.88,0.4 10.91,1.18 3.05,0.8 5.78,2.29 8.26,4.45 6.41,5.51 9.62,13.9 9.61,25.12 -0.01,3.71 -0.32,7.08 -0.98,10.14 -0.65,3.06 -1.67,5.82 -3.01,8.27 -1.36,2.46 -3.07,4.66 -5.19,6.6 -1.66,1.47 -3.46,2.66 -5.44,3.55 -1.97,0.91 -4.09,1.54 -6.33,1.89 -2.27,0.35 -4.82,0.54 -7.65,0.53l-16.31 -0.02c-2.26,0 -3.98,-0.35 -5.13,-1.04 -1.15,-0.69 -1.9,-1.65 -2.24,-2.91 -0.36,-1.25 -0.53,-2.87 -0.53,-4.86l0.07 -45.28c0,-2.68 0.6,-4.64 1.81,-5.84 1.22,-1.21 3.18,-1.82 5.85,-1.81zm4.83 9.93l-0.06 41.9 9.49 0.02c2.07,0 3.7,-0.06 4.89,-0.17 1.18,-0.11 2.39,-0.39 3.67,-0.83 1.26,-0.45 2.35,-1.08 3.27,-1.89 4.18,-3.53 6.29,-9.62 6.3,-18.27 0.01,-6.09 -0.9,-10.67 -2.73,-13.7 -1.84,-3.03 -4.11,-4.96 -6.79,-5.81 -2.7,-0.81 -5.96,-1.23 -9.77,-1.24l-8.27 -0.01zm210.45 -10.65c6.41,0.01 11.9,1.31 16.47,3.91 4.6,2.6 8.07,6.3 10.42,11.08 2.34,4.79 3.52,10.42 3.51,16.87 -0.02,4.76 -0.67,9.11 -1.97,13 -1.29,3.9 -3.22,7.28 -5.82,10.14 -2.58,2.85 -5.75,5.03 -9.51,6.55 -3.78,1.51 -8.08,2.26 -12.92,2.25 -4.83,-0.01 -9.16,-0.79 -12.96,-2.36 -3.83,-1.56 -7,-3.76 -9.56,-6.59 -2.54,-2.84 -4.47,-6.25 -5.78,-10.24 -1.31,-3.98 -1.93,-8.3 -1.92,-12.93 0,-4.74 0.67,-9.08 2.05,-13.05 1.37,-3.94 3.34,-7.3 5.93,-10.09 2.58,-2.76 5.74,-4.89 9.44,-6.35 3.7,-1.48 7.92,-2.2 12.62,-2.19zm17.72 31.75c0,-4.51 -0.72,-8.43 -2.17,-11.75 -1.47,-3.31 -3.54,-5.82 -6.24,-7.53 -2.7,-1.7 -5.81,-2.55 -9.33,-2.56 -2.49,0 -4.79,0.47 -6.9,1.4 -2.13,0.94 -3.96,2.31 -5.48,4.1 -1.53,1.8 -2.75,4.09 -3.64,6.88 -0.88,2.8 -1.33,5.94 -1.34,9.42 0,3.51 0.44,6.67 1.31,9.53 0.89,2.82 2.14,5.18 3.74,7.05 1.61,1.87 3.46,3.27 5.54,4.19 2.1,0.94 4.38,1.41 6.89,1.41 3.2,0 6.13,-0.8 8.83,-2.39 2.67,-1.59 4.8,-4.06 6.4,-7.4 1.58,-3.34 2.39,-7.46 2.39,-12.35zm202.3 12.82c-0.01,3.73 -0.98,7.07 -2.91,10.04 -1.92,2.97 -4.74,5.3 -8.44,6.98 -3.72,1.67 -8.12,2.5 -13.18,2.49 -6.09,-0.01 -11.13,-1.17 -15.08,-3.45 -2.79,-1.66 -5.06,-3.88 -6.81,-6.63 -1.75,-2.77 -2.63,-5.46 -2.62,-8.07 0,-1.51 0.53,-2.8 1.57,-3.9 1.07,-1.07 2.41,-1.6 4.02,-1.6 1.33,0 2.43,0.42 3.34,1.27 0.92,0.84 1.69,2.08 2.34,3.75 0.77,1.96 1.63,3.61 2.53,4.92 0.91,1.33 2.19,2.42 3.85,3.28 1.66,0.86 3.83,1.29 6.54,1.3 3.68,0 6.72,-0.86 9.02,-2.58 2.32,-1.72 3.49,-3.87 3.49,-6.46 0.01,-2.06 -0.62,-3.73 -1.86,-5 -1.25,-1.27 -2.87,-2.25 -4.85,-2.93 -1.96,-0.68 -4.62,-1.4 -7.93,-2.16 -4.43,-1.05 -8.14,-2.27 -11.12,-3.66 -2.99,-1.4 -5.36,-3.3 -7.1,-5.7 -1.75,-2.41 -2.62,-5.38 -2.62,-8.96 0,-3.39 0.93,-6.4 2.78,-9.05 1.85,-2.62 4.56,-4.65 8.06,-6.07 3.5,-1.41 7.63,-2.11 12.38,-2.11 3.78,0.01 7.06,0.49 9.83,1.42 2.76,0.96 5.05,2.21 6.87,3.77 1.82,1.55 3.14,3.2 3.99,4.9 0.82,1.71 1.26,3.4 1.26,5.02 0,1.49 -0.54,2.83 -1.58,4.02 -1.05,1.2 -2.39,1.78 -3.95,1.78 -1.43,-0.01 -2.51,-0.37 -3.26,-1.07 -0.75,-0.71 -1.54,-1.9 -2.4,-3.52 -1.13,-2.34 -2.48,-4.16 -4.06,-5.47 -1.56,-1.31 -4.08,-1.96 -7.57,-1.97 -3.23,0 -5.84,0.7 -7.81,2.12 -1.99,1.42 -2.98,3.12 -2.99,5.11 0,1.24 0.34,2.3 1,3.21 0.68,0.89 1.61,1.66 2.78,2.32 1.19,0.64 2.38,1.15 3.58,1.52 1.22,0.36 3.2,0.9 5.98,1.61 3.47,0.83 6.65,1.72 9.45,2.71 2.82,0.99 5.23,2.18 7.19,3.59 1.99,1.4 3.52,3.18 4.62,5.33 1.12,2.15 1.67,4.78 1.67,7.9z"/>
  </g>
 </g>
</svg>
